<?xml version="1.0" encoding="UTF-8"?>
<svg width="300px" height="300px" viewBox="0 0 300 300" version="1.1" xmlns="http://www.w3.org/2000/svg" xmlns:xlink="http://www.w3.org/1999/xlink">
    <!-- Generator: Sketch 42 (36781) - http://www.bohemiancoding.com/sketch -->
    <title>bg-dragarea</title>
    <desc>Created with Sketch.</desc>
    <defs>
        <rect id="path-1" x="0" y="0" width="69" height="57.1428571" rx="5.71428571"></rect>
        <mask id="mask-2" maskContentUnits="userSpaceOnUse" maskUnits="objectBoundingBox" x="0" y="0" width="69" height="57.1428571" fill="white">
            <use xlink:href="#path-1"></use>
        </mask>
        <rect id="path-3" x="0" y="0.590042595" width="69" height="57.1428571" rx="5.71428571"></rect>
    </defs>
    <g id="Page-1" stroke="none" stroke-width="1" fill="none" fill-rule="evenodd">
        <g id="bg-dragarea">
            <path d="M155.268639,96.4989583 L155.268639,103.834975 C155.268639,106.592058 153.024444,108.827116 150.268639,108.827116 C147.507215,108.827116 145.268639,106.596569 145.268639,103.834975 L145.268639,96.4989583 L138.272897,96.4989583 C136.061406,96.4989583 135.343289,95.0549679 136.655356,93.2919622 L150.268639,75 L163.881922,93.2919622 C165.200069,95.0631373 164.479611,96.4989583 162.264381,96.4989583 L155.268639,96.4989583 Z M136.268639,117.827116 C136.268639,116.170262 137.619137,114.827116 139.265129,114.827116 L161.272149,114.827116 C162.927064,114.827116 164.268639,116.173633 164.268639,117.827116 C164.268639,119.48397 162.918141,120.827116 161.272149,120.827116 L139.265129,120.827116 C137.610213,120.827116 136.268639,119.480599 136.268639,117.827116 Z" id="Combined-Shape" fill="#FFFFFF"></path>
            <g id="jpg-file-type" transform="translate(116.000000, 131.000000)">
                <use id="Background" stroke="#FFFFFF" mask="url(#mask-2)" stroke-width="5.71428571" xlink:href="#path-1"></use>
                <ellipse id="sun" fill="#FFFFFF" cx="16.75" cy="19.7142857" rx="5.75" ry="5.71428571"></ellipse>
                <g id="mountain">
                    <mask id="mask-4" fill="white">
                        <use xlink:href="#path-3"></use>
                    </mask>
                    <g id="Mask"></g>
                    <polygon id="Path" fill="#FFFFFF" mask="url(#mask-4)" points="21.2416667 38.6056022 34.3083333 51.1501399 50.6416667 32.3333333 68.6083333 58.990476 0.00833333333 58.990476"></polygon>
                </g>
            </g>
            <text id="DRAG-&amp;-DROP" font-family="SourceSansPro-Bold, Source Sans Pro" font-size="24" font-weight="bold" fill="#FFFFFF">
                <tspan x="77.588" y="218">DRAG &amp; DROP</tspan>
            </text>
        </g>
    </g>
</svg>