<?xml version="1.0" encoding="UTF-8"?>
<svg width="100px" height="93px" viewBox="0 0 100 93" version="1.1" xmlns="http://www.w3.org/2000/svg" xmlns:xlink="http://www.w3.org/1999/xlink">
    <!-- Generator: Sketch 42 (36781) - http://www.bohemiancoding.com/sketch -->
    <title>icon-download</title>
    <desc>Created with Sketch.</desc>
    <defs></defs>
    <g id="Page-1" stroke="none" stroke-width="1" fill="none" fill-rule="evenodd">
        <g id="icon-download" fill="#096559">
            <path d="M76.9230769,80.7692308 C76.9230769,79.7275643 76.5424681,78.826122 75.78125,78.0649038 C75.0200319,77.3036857 74.1185895,76.9230769 73.0769231,76.9230769 C72.0352566,76.9230769 71.1338143,77.3036857 70.3725962,78.0649038 C69.611378,78.826122 69.2307692,79.7275643 69.2307692,80.7692308 C69.2307692,81.8108972 69.611378,82.7123395 70.3725962,83.4735577 C71.1338143,84.2347758 72.0352566,84.6153846 73.0769231,84.6153846 C74.1185895,84.6153846 75.0200319,84.2347758 75.78125,83.4735577 C76.5424681,82.7123395 76.9230769,81.8108972 76.9230769,80.7692308 Z M92.3076923,80.7692308 C92.3076923,79.7275643 91.9270835,78.826122 91.1658654,78.0649038 C90.4046472,77.3036857 89.5032049,76.9230769 88.4615385,76.9230769 C87.419872,76.9230769 86.5184297,77.3036857 85.7572115,78.0649038 C84.9959934,78.826122 84.6153846,79.7275643 84.6153846,80.7692308 C84.6153846,81.8108972 84.9959934,82.7123395 85.7572115,83.4735577 C86.5184297,84.2347758 87.419872,84.6153846 88.4615385,84.6153846 C89.5032049,84.6153846 90.4046472,84.2347758 91.1658654,83.4735577 C91.9270835,82.7123395 92.3076923,81.8108972 92.3076923,80.7692308 Z M100,67.3076923 L100,86.5384615 C100,88.1410258 99.4391028,89.5032049 98.3173077,90.625 C97.1955126,91.7467951 95.8333335,92.3076923 94.2307692,92.3076923 L5.76923077,92.3076923 C4.16666666,92.3076923 2.80448718,91.7467951 1.68269231,90.625 C0.560897436,89.5032049 0,88.1410258 0,86.5384615 L0,67.3076923 C0,65.705128 0.560897436,64.3429489 1.68269231,63.2211538 C2.80448718,62.0993588 4.16666666,61.5384615 5.76923077,61.5384615 L33.7139423,61.5384615 L41.8269231,69.7115385 C44.150641,71.955128 46.875,73.0769231 50,73.0769231 C53.125,73.0769231 55.849359,71.955128 58.1730769,69.7115385 L66.3461538,61.5384615 L94.2307692,61.5384615 C95.8333335,61.5384615 97.1955126,62.0993588 98.3173077,63.2211538 C99.4391028,64.3429489 100,65.705128 100,67.3076923 Z M80.46875,33.1129808 C81.1498395,34.755609 80.8693912,36.1578526 79.6274038,37.3197115 L52.7043269,64.2427885 C51.9831731,65.0040066 51.0817308,65.3846154 50,65.3846154 C48.9182692,65.3846154 48.0168269,65.0040066 47.2956731,64.2427885 L20.3725962,37.3197115 C19.130609,36.1578526 18.8501603,34.755609 19.53125,33.1129808 C20.2123397,31.5504808 21.3942308,30.7692308 23.0769231,30.7692308 L38.4615385,30.7692308 L38.4615385,3.84615385 C38.4615385,2.80448718 38.8421474,1.90304487 39.6033654,1.14182692 C40.3645834,0.380608974 41.2660257,0 42.3076923,0 L57.6923077,0 C58.7339743,0 59.6354166,0.380608974 60.3966346,1.14182692 C61.1578528,1.90304487 61.5384615,2.80448718 61.5384615,3.84615385 L61.5384615,30.7692308 L76.9230769,30.7692308 C78.6057692,30.7692308 79.7876605,31.5504808 80.46875,33.1129808 Z" id="Shape"></path>
        </g>
    </g>
</svg>